<?xml version="1.0" encoding="iso-8859-1"?>
<!-- Generator: Adobe Illustrator 19.1.1, SVG Export Plug-In . SVG Version: 6.00 Build 0)  -->
<svg version="1.1" id="&#x5716;&#x5C64;_1" xmlns="http://www.w3.org/2000/svg" xmlns:xlink="http://www.w3.org/1999/xlink" x="0px"
	 y="0px" viewBox="0 0 417.465 130.766" style="enable-background:new 0 0 417.465 130.766;" xml:space="preserve">
<g>
	<path style="fill:#FFFFFF;" d="M398.083,13.837c0-4.586,3.745-8.339,8.366-8.339c2.211,0,4.284,0.89,5.857,2.443
		c1.57,1.601,2.415,3.69,2.415,5.896c0,2.211-0.845,4.331-2.415,5.872c-1.573,1.581-3.646,2.464-5.857,2.464
		C401.828,22.173,398.083,18.437,398.083,13.837z M397.377,13.837c0,4.991,4.072,9.052,9.072,9.052c2.417,0,4.648-0.936,6.375-2.649
		c1.72-1.721,2.641-3.977,2.641-6.403c0-2.428-0.921-4.686-2.641-6.409c-1.727-1.701-3.958-2.648-6.375-2.648
		C401.449,4.78,397.377,8.843,397.377,13.837z M403.057,19.169h1.265V14.96h2.871c0.495,0,0.856,0.036,1.123,0.168
		c0.419,0.241,0.645,0.651,0.664,1.309l0.116,1.646c0,0.374,0.01,0.633,0.01,0.764c0.066,0.13,0.113,0.241,0.122,0.323h1.601v-0.231
		c-0.206-0.071-0.298-0.276-0.418-0.597c-0.064-0.173-0.064-0.453-0.076-0.825l-0.056-1.319c0-0.568-0.129-1.005-0.286-1.236
		c-0.198-0.252-0.521-0.474-0.887-0.623c0.428-0.206,0.755-0.54,1.022-0.903c0.219-0.39,0.344-0.846,0.344-1.43
		c0-1.125-0.436-1.904-1.319-2.326c-0.464-0.222-1.078-0.324-1.773-0.324h-4.322V19.169z M404.321,13.837v-3.357h3.058
		c0.447,0,0.808,0.074,1.069,0.205c0.435,0.251,0.714,0.725,0.714,1.422c0,0.669-0.183,1.115-0.538,1.375
		c-0.336,0.243-0.798,0.355-1.376,0.355H404.321z M41.831,26.301L4.619,83.919h25.435l35.772-55.082L41.831,26.301z M194.876,25.009
		V3.655h-72.324c-9.837,0.614-14.141,5.252-17.366,8.6c-3.439,3.553-5.393,11.034-5.393,11.034V3.794c0,0-35.5,0-38.394,0
		c-2.899,0-5.659,1.217-7.744,4.074c-2.175,2.824-10.959,17.141-10.959,17.141H194.876z M391.531,25.026V3.655h-77.384
		c-9.807,0.614-14.134,5.252-17.365,8.6c-3.44,3.553-5.376,11.034-5.376,11.034v1.72L391.531,25.026z M220.275,3.758h-21.623v21.251
		h21.623V3.758z M291.249,3.758h-21.602v21.251h21.602V3.758z M291.249,32.679l-21.24-1.255v24.653c0,0-0.064,7.102-7.001,7.102
		c-6.877,0-36.508,0-36.508,0s-6.182-0.503-6.182-7.036c0-6.518,0-28.065,0-28.065l-21.455-1.536v37.809
		c3.467,18.135,20.014,19.53,20.014,19.53s1.685,0.113,1.96,0.14h49.311c0,0,21.101-1.683,21.101-21.728
		C291.249,42.245,291.249,32.679,291.249,32.679z M77.845,83.931h101.136c17.615-3.496,19.455-19.32,19.455-19.32
		c0.829-4.703,0.345-8.507,0.345-8.507c-0.53-3.169-6.62-17.168-19.841-18.387c-7.882-0.726-78.042-6.238-78.042-6.238
		c1.358,6.956,4.52,10.468,6.621,12.476c4.871,4.629,12.622,5.941,12.622,5.941c1.87,0.176,54.071,4.452,54.071,4.452
		c1.662,0.085,4.814,0.503,4.777,4.582c0,0.495-0.457,4.09-4.462,4.09c-4.872,0-75.655,0-75.655,0V31.301l-21.027-1.522V83.931z
		 M291.406,84.114h77.375c19.41-1.108,22.152-19.327,22.152-19.327c0.688-4.787,0.121-8.684,0.121-8.684
		c-0.557-4.312-6.758-17.269-19.994-18.525c-7.839-0.725-78.396-4.842-78.396-4.842c2.092,7.177,4.897,9.35,7.017,11.339
		c4.882,4.648,12.199,5.763,12.199,5.763c1.839,0.147,54.621,4.508,54.621,4.508c1.703,0.085,5.095,0.263,5.095,4.333
		c0,1.227-0.632,2.499-1.415,3.196c0,0-1.865,1.014-3.597,1.014c-4.879,0-75.13,0-75.13,0L291.406,84.114z"/>
	<g>
		<path style="fill:#FFFFFF;" d="M5.628,129.33V97.924h5.394v31.406H5.628z"/>
		<path style="fill:#FFFFFF;" d="M15.894,129.33V97.924h5.004l6.568,17.966h0.087V97.924h4.872v31.406h-4.697l-6.875-19.616h-0.087
			v19.616H15.894z"/>
		<path style="fill:#FFFFFF;" d="M55,105.668c-0.06-0.668-0.182-1.225-0.371-1.676c-0.188-0.449-0.42-0.804-0.696-1.065
			c-0.274-0.261-0.572-0.449-0.89-0.566c-0.321-0.115-0.625-0.174-0.915-0.174c-0.87,0-1.537,0.269-2,0.805
			c-0.465,0.537-0.698,1.299-0.698,2.284c0,0.899,0.269,1.727,0.806,2.48c0.536,0.756,1.21,1.509,2.022,2.262
			c0.811,0.756,1.697,1.516,2.654,2.284c0.958,0.769,1.841,1.617,2.654,2.545c0.811,0.928,1.485,1.951,2.022,3.066
			c0.537,1.117,0.804,2.385,0.804,3.807c0,1.306-0.21,2.458-0.628,3.459c-0.422,1.001-1.003,1.842-1.742,2.522
			c-0.739,0.682-1.639,1.196-2.697,1.545c-1.059,0.348-2.211,0.521-3.458,0.521c-1.247,0-2.364-0.232-3.35-0.696
			c-0.986-0.463-1.82-1.095-2.501-1.893c-0.681-0.797-1.21-1.718-1.587-2.761c-0.376-1.044-0.595-2.16-0.652-3.349l5.131-0.742
			c0.116,1.597,0.465,2.786,1.045,3.568c0.581,0.783,1.305,1.174,2.175,1.174c0.927,0,1.682-0.245,2.262-0.738
			c0.58-0.494,0.871-1.203,0.871-2.132c0-1.043-0.268-1.972-0.805-2.783c-0.537-0.813-1.212-1.595-2.023-2.35
			c-0.813-0.753-1.696-1.507-2.652-2.262c-0.958-0.754-1.842-1.579-2.653-2.478c-0.812-0.899-1.485-1.915-2.023-3.045
			c-0.538-1.131-0.805-2.451-0.805-3.958c0-2.524,0.726-4.46,2.175-5.808c1.45-1.349,3.509-2.023,6.177-2.023
			c1.101,0,2.087,0.188,2.958,0.565c0.87,0.378,1.617,0.908,2.239,1.588c0.624,0.682,1.131,1.486,1.524,2.414
			c0.392,0.928,0.645,1.943,0.76,3.045L55,105.668z"/>
		<path style="fill:#FFFFFF;" d="M63.437,129.33V97.924H77.88v4.697h-9.048v8.091h6.96v4.698h-6.96v9.223h9.658v4.697H63.437z"/>
		<path style="fill:#FFFFFF;" d="M84.839,129.33h-5.221l5.787-31.406h6.698l5.787,31.406h-5.221l-0.957-6.959h-5.916L84.839,129.33z
			 M86.579,117.672h4.349l-2.131-13.484H88.71L86.579,117.672z"/>
		<path style="fill:#FFFFFF;" d="M105.37,129.33h-5.394V97.924h7.569c3.016,0,5.293,0.71,6.83,2.131
			c1.537,1.422,2.305,3.8,2.305,7.135c0,1.277-0.108,2.363-0.326,3.263c-0.217,0.898-0.507,1.661-0.87,2.283
			c-0.364,0.625-0.77,1.124-1.218,1.502c-0.45,0.377-0.907,0.667-1.371,0.87l4.567,14.223h-5.48l-3.829-13.005
			c-0.348,0.058-0.776,0.093-1.283,0.107c-0.507,0.017-1.008,0.023-1.501,0.023V129.33z M105.37,112.018h1.915
			c0.725,0,1.341-0.071,1.849-0.218c0.508-0.144,0.92-0.405,1.239-0.783c0.318-0.376,0.55-0.876,0.696-1.5
			c0.145-0.622,0.218-1.399,0.218-2.327c0-1.856-0.305-3.124-0.913-3.807c-0.608-0.681-1.639-1.023-3.088-1.023h-1.915V112.018z"/>
		<path style="fill:#FFFFFF;" d="M131.513,108.407v-2.435c0-1.335-0.262-2.299-0.783-2.895c-0.521-0.593-1.131-0.892-1.827-0.892
			c-1.102,0-1.856,0.283-2.263,0.849c-0.405,0.565-0.608,1.443-0.608,2.632v15.92c0,1.189,0.203,2.066,0.608,2.631
			c0.407,0.566,1.161,0.848,2.263,0.848c0.985,0,1.668-0.275,2.045-0.826c0.377-0.55,0.565-1.333,0.565-2.349v-3.784h5.393v3.61
			c0,1.103-0.167,2.147-0.5,3.131c-0.333,0.987-0.827,1.841-1.477,2.567c-0.654,0.726-1.488,1.297-2.503,1.717
			c-1.015,0.422-2.189,0.631-3.523,0.631c-1.421,0-2.647-0.21-3.676-0.631c-1.029-0.42-1.886-0.992-2.567-1.717
			c-0.681-0.726-1.189-1.58-1.523-2.567c-0.333-0.985-0.498-2.028-0.498-3.131v-16.18c0-1.103,0.165-2.148,0.498-3.134
			c0.334-0.985,0.842-1.841,1.523-2.567c0.681-0.723,1.538-1.296,2.567-1.716c1.029-0.422,2.254-0.632,3.676-0.632
			c1.334,0,2.507,0.232,3.523,0.695c1.016,0.465,1.85,1.087,2.503,1.871c0.65,0.783,1.144,1.697,1.477,2.741
			c0.333,1.044,0.5,2.148,0.5,3.305v2.306H131.513z"/>
		<path style="fill:#FFFFFF;" d="M141.301,129.33V97.924h5.394v12.789h5.741V97.924h5.395v31.406h-5.395v-13.919h-5.741v13.919
			H141.301z"/>
		<path style="fill:#FFFFFF;" d="M170.576,105.538c0-1.103,0.165-2.148,0.498-3.134c0.334-0.985,0.841-1.841,1.523-2.567
			c0.68-0.723,1.537-1.296,2.566-1.716c1.03-0.422,2.256-0.632,3.675-0.632c1.422,0,2.646,0.21,3.677,0.632
			c1.028,0.42,1.885,0.993,2.565,1.716c0.682,0.726,1.189,1.582,1.524,2.567c0.333,0.986,0.5,2.031,0.5,3.134v16.18
			c0,1.103-0.167,2.147-0.5,3.131c-0.335,0.987-0.842,1.841-1.524,2.567c-0.68,0.726-1.537,1.297-2.565,1.717
			c-1.031,0.422-2.255,0.631-3.677,0.631c-1.419,0-2.645-0.21-3.675-0.631c-1.03-0.42-1.887-0.992-2.566-1.717
			c-0.683-0.726-1.189-1.58-1.523-2.567c-0.333-0.985-0.498-2.028-0.498-3.131V105.538z M175.969,121.588
			c0,1.189,0.203,2.066,0.609,2.631c0.406,0.566,1.16,0.848,2.261,0.848c1.102,0,1.857-0.282,2.263-0.848
			c0.405-0.565,0.609-1.441,0.609-2.631v-15.92c0-1.189-0.204-2.067-0.609-2.632c-0.406-0.566-1.161-0.849-2.263-0.849
			c-1.101,0-1.855,0.283-2.261,0.849c-0.406,0.565-0.609,1.443-0.609,2.632V121.588z"/>
		<path style="fill:#FFFFFF;" d="M191.281,129.33V97.924h15.05v4.697h-9.656v8.091h7.22v4.698h-7.22v13.919H191.281z"/>
		<g>
			<path style="fill:#FFFFFF;" d="M216.847,129.33V97.925h5.395v31.405H216.847z"/>
			<path style="fill:#FFFFFF;" d="M227.113,129.33V97.925h5.004l6.568,17.965h0.086V97.925h4.872v31.405h-4.697l-6.873-19.616
				h-0.089v19.616H227.113z"/>
			<path style="fill:#FFFFFF;" d="M258.651,108.407v-2.435c0-1.333-0.263-2.299-0.783-2.893c-0.523-0.593-1.134-0.892-1.827-0.892
				c-1.104,0-1.856,0.283-2.262,0.848c-0.406,0.565-0.609,1.443-0.609,2.632v15.92c0,1.189,0.203,2.067,0.609,2.632
				c0.405,0.566,1.158,0.848,2.262,0.848c0.985,0,1.665-0.276,2.044-0.827c0.376-0.55,0.566-1.333,0.566-2.349v-3.784h5.393v3.61
				c0,1.103-0.167,2.148-0.501,3.131c-0.334,0.987-0.826,1.841-1.478,2.567c-0.653,0.726-1.487,1.297-2.502,1.717
				c-1.015,0.422-2.19,0.631-3.523,0.631c-1.422,0-2.647-0.21-3.677-0.631c-1.03-0.42-1.885-0.992-2.565-1.717
				c-0.682-0.726-1.189-1.58-1.523-2.567c-0.333-0.983-0.5-2.028-0.5-3.131v-16.18c0-1.103,0.167-2.147,0.5-3.132
				c0.334-0.986,0.842-1.842,1.523-2.567c0.681-0.724,1.535-1.297,2.565-1.717c1.029-0.42,2.255-0.632,3.677-0.632
				c1.333,0,2.508,0.232,3.523,0.697c1.015,0.463,1.849,1.087,2.502,1.87c0.652,0.782,1.145,1.695,1.478,2.74
				c0.334,1.044,0.501,2.148,0.501,3.306v2.305H258.651z"/>
			<path style="fill:#FFFFFF;" d="M273.874,129.33h-5.393V97.925h7.569c3.016,0,5.292,0.711,6.83,2.131
				c1.536,1.421,2.306,3.798,2.306,7.133c0,1.277-0.11,2.365-0.327,3.263c-0.218,0.898-0.507,1.661-0.87,2.284
				c-0.363,0.623-0.768,1.123-1.218,1.5c-0.45,0.377-0.908,0.667-1.37,0.87l4.567,14.223h-5.482l-3.828-13.005
				c-0.348,0.058-0.775,0.095-1.283,0.109c-0.507,0.016-1.007,0.021-1.501,0.021V129.33z M273.874,112.019h1.914
				c0.724,0,1.341-0.072,1.851-0.218c0.506-0.145,0.919-0.406,1.24-0.784c0.317-0.376,0.548-0.875,0.693-1.5
				c0.146-0.622,0.219-1.399,0.219-2.327c0-1.856-0.304-3.124-0.912-3.807c-0.611-0.68-1.64-1.023-3.091-1.023h-1.914V112.019z"/>
			<path style="fill:#FFFFFF;" d="M289.188,129.33V97.925h14.439v4.696h-9.046v8.091h6.96v4.698h-6.96v9.222h9.656v4.697H289.188z"
				/>
			<path style="fill:#FFFFFF;" d="M307.456,97.925h8.003c2.813,0,4.937,0.768,6.374,2.305c1.435,1.538,2.151,3.93,2.151,7.177v12.44
				c0,3.249-0.717,5.641-2.151,7.179c-1.437,1.538-3.561,2.303-6.374,2.303h-8.003V97.925z M312.85,124.894h1.872
				c1.448,0,2.456-0.318,3.022-0.957c0.566-0.637,0.848-1.784,0.848-3.436v-13.747c0-1.652-0.281-2.797-0.848-3.435
				c-0.566-0.638-1.574-0.959-3.022-0.959h-1.872V124.894z"/>
			<path style="fill:#FFFFFF;" d="M328.857,129.33V97.925h5.395v31.405H328.857z"/>
			<path style="fill:#FFFFFF;" d="M339.124,97.925h8.004c2.899,0,5.015,0.711,6.351,2.131c1.332,1.421,1.999,3.48,1.999,6.176
				c0,0.668-0.072,1.341-0.217,2.023c-0.145,0.68-0.367,1.312-0.675,1.891c-0.302,0.582-0.693,1.103-1.174,1.568
				c-0.48,0.464-1.037,0.826-1.673,1.087c1.392,0.609,2.463,1.495,3.219,2.653c0.755,1.16,1.131,2.755,1.131,4.785
				c0,1.304-0.153,2.508-0.458,3.611c-0.304,1.101-0.79,2.059-1.457,2.87c-0.668,0.812-1.537,1.45-2.61,1.914
				c-1.073,0.465-2.377,0.695-3.914,0.695h-8.525V97.925z M344.518,110.8h1.957c1.014,0,1.87-0.34,2.567-1.023
				c0.695-0.679,1.043-1.674,1.043-2.978c0-2.959-1.174-4.439-3.522-4.439h-2.045V110.8z M344.518,124.894h2.263
				c1.448,0,2.463-0.407,3.044-1.218c0.58-0.812,0.869-2.015,0.869-3.61c0-1.624-0.333-2.835-1-3.632
				c-0.667-0.797-1.814-1.196-3.436-1.196h-1.74V124.894z"/>
			<path style="fill:#FFFFFF;" d="M359.524,129.33V97.925h5.393v26.708h8.481v4.697H359.524z"/>
			<path style="fill:#FFFFFF;" d="M375.663,129.33V97.925h14.44v4.696h-9.048v8.091h6.96v4.698h-6.96v9.222h9.656v4.697H375.663z"/>
		</g>
	</g>
</g>
</svg>
